<mxfile host="drawio-plugin" modified="2022-04-07T20:04:31.826Z" agent="5.0 (Windows NT 6.2; Win64; x64) AppleWebKit/537.36 (KHTML, like Gecko) Chrome/89.0.4389.114 Safari/537.36" etag="4h49QTFedeANVWhR8y8Q" version="15.5.4" type="embed"><diagram id="xvZUNqwMbDKI735U4F8N" name="Page-1"><mxGraphModel dx="1076" dy="694" grid="1" gridSize="10" guides="1" tooltips="1" connect="1" arrows="1" fold="1" page="1" pageScale="1" pageWidth="827" pageHeight="1169" background="#182E3E" math="0" shadow="0"><root><mxCell id="0"/><mxCell id="1" parent="0"/><mxCell id="nhhLQnxz0LdLholDHexb-1" value="" style="rounded=1;whiteSpace=wrap;html=1;fillColor=#EEEEEE;strokeColor=#FFFFFF;fontColor=#1A1A1A;" parent="1" vertex="1"><mxGeometry x="100" y="1080" width="120" height="30" as="geometry"/></mxCell><mxCell id="nhhLQnxz0LdLholDHexb-2" value="" style="rounded=1;whiteSpace=wrap;html=1;fillColor=#EEEEEE;strokeColor=#FFFFFF;fontColor=#1A1A1A;" parent="1" vertex="1"><mxGeometry x="100" y="1120" width="120" height="30" as="geometry"/></mxCell><mxCell id="nhhLQnxz0LdLholDHexb-3" value="" style="rounded=1;whiteSpace=wrap;html=1;fillColor=#EEEEEE;strokeColor=#FFFFFF;fontColor=#1A1A1A;" parent="1" vertex="1"><mxGeometry x="100" y="1420" width="120" height="30" as="geometry"/></mxCell><mxCell id="nhhLQnxz0LdLholDHexb-4" value="" style="rounded=1;whiteSpace=wrap;html=1;fillColor=#EEEEEE;strokeColor=#FFFFFF;fontColor=#1A1A1A;" parent="1" vertex="1"><mxGeometry x="100" y="1370" width="120" height="30" as="geometry"/></mxCell><mxCell id="nhhLQnxz0LdLholDHexb-5" value="" style="rounded=1;whiteSpace=wrap;html=1;fillColor=#EEEEEE;strokeColor=#FFFFFF;fontColor=#1A1A1A;" parent="1" vertex="1"><mxGeometry x="100" y="1270" width="120" height="30" as="geometry"/></mxCell><mxCell id="nhhLQnxz0LdLholDHexb-6" value="" style="rounded=1;whiteSpace=wrap;html=1;fillColor=#EEEEEE;strokeColor=#FFFFFF;fontColor=#1A1A1A;" parent="1" vertex="1"><mxGeometry x="100" y="1320" width="120" height="30" as="geometry"/></mxCell><mxCell id="nhhLQnxz0LdLholDHexb-7" value="" style="rounded=1;whiteSpace=wrap;html=1;fillColor=#EEEEEE;strokeColor=#FFFFFF;fontColor=#1A1A1A;" parent="1" vertex="1"><mxGeometry x="100" y="1169" width="120" height="30" as="geometry"/></mxCell><mxCell id="nhhLQnxz0LdLholDHexb-8" value="" style="rounded=1;whiteSpace=wrap;html=1;fillColor=#EEEEEE;strokeColor=#FFFFFF;fontColor=#1A1A1A;" parent="1" vertex="1"><mxGeometry x="100" y="1220" width="120" height="30" as="geometry"/></mxCell><mxCell id="nhhLQnxz0LdLholDHexb-11" style="edgeStyle=orthogonalEdgeStyle;rounded=1;orthogonalLoop=1;jettySize=auto;html=1;exitX=0;exitY=0.25;exitDx=0;exitDy=0;entryX=1;entryY=0.25;entryDx=0;entryDy=0;curved=1;labelBackgroundColor=#182E3E;strokeColor=#FFFFFF;fontColor=#FFFFFF;" parent="1" source="nhhLQnxz0LdLholDHexb-9" target="nhhLQnxz0LdLholDHexb-2" edge="1"><mxGeometry relative="1" as="geometry"><Array as="points"><mxPoint x="294" y="1260"/><mxPoint x="257" y="1260"/><mxPoint x="257" y="1128"/></Array></mxGeometry></mxCell><mxCell id="nhhLQnxz0LdLholDHexb-12" style="edgeStyle=orthogonalEdgeStyle;rounded=1;orthogonalLoop=1;jettySize=auto;html=1;exitX=0;exitY=0.5;exitDx=0;exitDy=0;entryX=1;entryY=0.25;entryDx=0;entryDy=0;curved=1;labelBackgroundColor=#182E3E;strokeColor=#FFFFFF;fontColor=#FFFFFF;" parent="1" source="nhhLQnxz0LdLholDHexb-9" target="nhhLQnxz0LdLholDHexb-7" edge="1"><mxGeometry relative="1" as="geometry"><Array as="points"><mxPoint x="257" y="1260"/><mxPoint x="257" y="1177"/></Array></mxGeometry></mxCell><mxCell id="nhhLQnxz0LdLholDHexb-13" style="edgeStyle=orthogonalEdgeStyle;rounded=1;orthogonalLoop=1;jettySize=auto;html=1;exitX=0;exitY=0.5;exitDx=0;exitDy=0;entryX=1;entryY=0.5;entryDx=0;entryDy=0;curved=1;labelBackgroundColor=#182E3E;strokeColor=#FFFFFF;fontColor=#FFFFFF;" parent="1" source="nhhLQnxz0LdLholDHexb-9" target="nhhLQnxz0LdLholDHexb-8" edge="1"><mxGeometry relative="1" as="geometry"/></mxCell><mxCell id="nhhLQnxz0LdLholDHexb-14" style="edgeStyle=orthogonalEdgeStyle;rounded=1;orthogonalLoop=1;jettySize=auto;html=1;exitX=0;exitY=0.5;exitDx=0;exitDy=0;entryX=1;entryY=0.5;entryDx=0;entryDy=0;curved=1;labelBackgroundColor=#182E3E;strokeColor=#FFFFFF;fontColor=#FFFFFF;" parent="1" source="nhhLQnxz0LdLholDHexb-9" target="nhhLQnxz0LdLholDHexb-5" edge="1"><mxGeometry relative="1" as="geometry"/></mxCell><mxCell id="nhhLQnxz0LdLholDHexb-15" style="edgeStyle=orthogonalEdgeStyle;rounded=1;orthogonalLoop=1;jettySize=auto;html=1;exitX=0;exitY=0.5;exitDx=0;exitDy=0;entryX=1;entryY=0.75;entryDx=0;entryDy=0;curved=1;labelBackgroundColor=#182E3E;strokeColor=#FFFFFF;fontColor=#FFFFFF;" parent="1" source="nhhLQnxz0LdLholDHexb-9" target="nhhLQnxz0LdLholDHexb-6" edge="1"><mxGeometry relative="1" as="geometry"/></mxCell><mxCell id="nhhLQnxz0LdLholDHexb-16" style="edgeStyle=orthogonalEdgeStyle;rounded=1;orthogonalLoop=1;jettySize=auto;html=1;exitX=0;exitY=0.5;exitDx=0;exitDy=0;entryX=1;entryY=0.25;entryDx=0;entryDy=0;curved=1;labelBackgroundColor=#182E3E;strokeColor=#FFFFFF;fontColor=#FFFFFF;" parent="1" source="nhhLQnxz0LdLholDHexb-9" target="nhhLQnxz0LdLholDHexb-1" edge="1"><mxGeometry relative="1" as="geometry"/></mxCell><mxCell id="nhhLQnxz0LdLholDHexb-17" style="edgeStyle=orthogonalEdgeStyle;rounded=1;orthogonalLoop=1;jettySize=auto;html=1;exitX=0;exitY=0.5;exitDx=0;exitDy=0;entryX=1;entryY=0.5;entryDx=0;entryDy=0;curved=1;labelBackgroundColor=#182E3E;strokeColor=#FFFFFF;fontColor=#FFFFFF;" parent="1" source="nhhLQnxz0LdLholDHexb-9" target="nhhLQnxz0LdLholDHexb-4" edge="1"><mxGeometry relative="1" as="geometry"/></mxCell><mxCell id="nhhLQnxz0LdLholDHexb-18" style="edgeStyle=orthogonalEdgeStyle;rounded=1;orthogonalLoop=1;jettySize=auto;html=1;exitX=0;exitY=0.5;exitDx=0;exitDy=0;entryX=1;entryY=0.5;entryDx=0;entryDy=0;curved=1;labelBackgroundColor=#182E3E;strokeColor=#FFFFFF;fontColor=#FFFFFF;" parent="1" source="nhhLQnxz0LdLholDHexb-9" target="nhhLQnxz0LdLholDHexb-3" edge="1"><mxGeometry relative="1" as="geometry"/></mxCell><mxCell id="nhhLQnxz0LdLholDHexb-20" style="edgeStyle=orthogonalEdgeStyle;rounded=1;orthogonalLoop=1;jettySize=auto;html=1;exitX=1;exitY=0.5;exitDx=0;exitDy=0;entryX=0;entryY=0.5;entryDx=0;entryDy=0;curved=1;labelBackgroundColor=#182E3E;strokeColor=#FFFFFF;fontColor=#FFFFFF;" parent="1" source="nhhLQnxz0LdLholDHexb-9" target="nhhLQnxz0LdLholDHexb-19" edge="1"><mxGeometry relative="1" as="geometry"/></mxCell><mxCell id="nhhLQnxz0LdLholDHexb-9" value="" style="rounded=1;whiteSpace=wrap;html=1;fillColor=#EEEEEE;strokeColor=#FFFFFF;fontColor=#1A1A1A;" parent="1" vertex="1"><mxGeometry x="294" y="1230" width="120" height="60" as="geometry"/></mxCell><mxCell id="nhhLQnxz0LdLholDHexb-23" style="edgeStyle=orthogonalEdgeStyle;rounded=1;orthogonalLoop=1;jettySize=auto;html=1;exitX=0.5;exitY=0;exitDx=0;exitDy=0;entryX=1;entryY=0.5;entryDx=0;entryDy=0;curved=1;labelBackgroundColor=#182E3E;strokeColor=#FFFFFF;fontColor=#FFFFFF;" parent="1" source="nhhLQnxz0LdLholDHexb-19" target="nhhLQnxz0LdLholDHexb-22" edge="1"><mxGeometry relative="1" as="geometry"/></mxCell><mxCell id="nhhLQnxz0LdLholDHexb-24" style="edgeStyle=orthogonalEdgeStyle;rounded=1;orthogonalLoop=1;jettySize=auto;html=1;exitX=0.5;exitY=0;exitDx=0;exitDy=0;entryX=1;entryY=0.5;entryDx=0;entryDy=0;curved=1;labelBackgroundColor=#182E3E;strokeColor=#FFFFFF;fontColor=#FFFFFF;" parent="1" source="nhhLQnxz0LdLholDHexb-19" target="nhhLQnxz0LdLholDHexb-21" edge="1"><mxGeometry relative="1" as="geometry"/></mxCell><mxCell id="nhhLQnxz0LdLholDHexb-42" style="edgeStyle=orthogonalEdgeStyle;rounded=1;orthogonalLoop=1;jettySize=auto;html=1;exitX=1;exitY=0.5;exitDx=0;exitDy=0;entryX=0;entryY=0.5;entryDx=0;entryDy=0;curved=1;labelBackgroundColor=#182E3E;strokeColor=#FFFFFF;fontColor=#FFFFFF;" parent="1" source="nhhLQnxz0LdLholDHexb-19" target="nhhLQnxz0LdLholDHexb-41" edge="1"><mxGeometry relative="1" as="geometry"/></mxCell><mxCell id="nhhLQnxz0LdLholDHexb-19" value="" style="rhombus;whiteSpace=wrap;html=1;rounded=1;fillColor=#EEEEEE;strokeColor=#FFFFFF;fontColor=#1A1A1A;" parent="1" vertex="1"><mxGeometry x="450" y="1220" width="80" height="80" as="geometry"/></mxCell><mxCell id="nhhLQnxz0LdLholDHexb-21" value="" style="ellipse;whiteSpace=wrap;html=1;rounded=1;fillColor=#EEEEEE;strokeColor=#FFFFFF;fontColor=#1A1A1A;" parent="1" vertex="1"><mxGeometry x="326" y="1080" width="124" height="40" as="geometry"/></mxCell><mxCell id="nhhLQnxz0LdLholDHexb-22" value="" style="ellipse;whiteSpace=wrap;html=1;rounded=1;fillColor=#EEEEEE;strokeColor=#FFFFFF;fontColor=#1A1A1A;" parent="1" vertex="1"><mxGeometry x="340" y="1140" width="124" height="40" as="geometry"/></mxCell><mxCell id="nhhLQnxz0LdLholDHexb-43" style="edgeStyle=orthogonalEdgeStyle;rounded=1;orthogonalLoop=1;jettySize=auto;html=1;exitX=0;exitY=0.5;exitDx=0;exitDy=0;curved=1;labelBackgroundColor=#182E3E;strokeColor=#FFFFFF;fontColor=#FFFFFF;" parent="1" source="nhhLQnxz0LdLholDHexb-41" target="nhhLQnxz0LdLholDHexb-19" edge="1"><mxGeometry relative="1" as="geometry"/></mxCell><mxCell id="nhhLQnxz0LdLholDHexb-45" style="edgeStyle=orthogonalEdgeStyle;rounded=1;orthogonalLoop=1;jettySize=auto;html=1;exitX=1;exitY=0.5;exitDx=0;exitDy=0;entryX=0;entryY=0.5;entryDx=0;entryDy=0;curved=1;labelBackgroundColor=#182E3E;strokeColor=#FFFFFF;fontColor=#FFFFFF;" parent="1" source="nhhLQnxz0LdLholDHexb-41" target="nhhLQnxz0LdLholDHexb-44" edge="1"><mxGeometry relative="1" as="geometry"/></mxCell><mxCell id="nhhLQnxz0LdLholDHexb-48" style="edgeStyle=orthogonalEdgeStyle;rounded=1;orthogonalLoop=1;jettySize=auto;html=1;exitX=0.5;exitY=0;exitDx=0;exitDy=0;entryX=0.5;entryY=1;entryDx=0;entryDy=0;curved=1;labelBackgroundColor=#182E3E;strokeColor=#FFFFFF;fontColor=#FFFFFF;" parent="1" source="nhhLQnxz0LdLholDHexb-41" target="nhhLQnxz0LdLholDHexb-47" edge="1"><mxGeometry relative="1" as="geometry"/></mxCell><mxCell id="nhhLQnxz0LdLholDHexb-41" value="" style="rounded=1;whiteSpace=wrap;html=1;fillColor=#EEEEEE;strokeColor=#FFFFFF;fontColor=#1A1A1A;" parent="1" vertex="1"><mxGeometry x="560" y="1230" width="120" height="60" as="geometry"/></mxCell><mxCell id="nhhLQnxz0LdLholDHexb-46" style="edgeStyle=orthogonalEdgeStyle;rounded=1;orthogonalLoop=1;jettySize=auto;html=1;exitX=0;exitY=0.5;exitDx=0;exitDy=0;curved=1;labelBackgroundColor=#182E3E;strokeColor=#FFFFFF;fontColor=#FFFFFF;" parent="1" source="nhhLQnxz0LdLholDHexb-44" edge="1"><mxGeometry relative="1" as="geometry"><mxPoint x="680" y="1260" as="targetPoint"/></mxGeometry></mxCell><mxCell id="nhhLQnxz0LdLholDHexb-92" style="edgeStyle=orthogonalEdgeStyle;rounded=1;orthogonalLoop=1;jettySize=auto;html=1;exitX=1;exitY=0.5;exitDx=0;exitDy=0;entryX=0;entryY=0.5;entryDx=0;entryDy=0;curved=1;labelBackgroundColor=#182E3E;strokeColor=#FFFFFF;fontColor=#FFFFFF;" parent="1" source="nhhLQnxz0LdLholDHexb-44" target="nhhLQnxz0LdLholDHexb-91" edge="1"><mxGeometry relative="1" as="geometry"/></mxCell><mxCell id="nhhLQnxz0LdLholDHexb-44" value="" style="rhombus;whiteSpace=wrap;html=1;rounded=1;fillColor=#EEEEEE;strokeColor=#FFFFFF;fontColor=#1A1A1A;" parent="1" vertex="1"><mxGeometry x="710" y="1220" width="80" height="80" as="geometry"/></mxCell><mxCell id="nhhLQnxz0LdLholDHexb-49" style="edgeStyle=orthogonalEdgeStyle;rounded=1;orthogonalLoop=1;jettySize=auto;html=1;exitX=0.5;exitY=1;exitDx=0;exitDy=0;curved=1;labelBackgroundColor=#182E3E;strokeColor=#FFFFFF;fontColor=#FFFFFF;" parent="1" source="nhhLQnxz0LdLholDHexb-47" edge="1"><mxGeometry relative="1" as="geometry"><mxPoint x="620" y="1230" as="targetPoint"/></mxGeometry></mxCell><mxCell id="nhhLQnxz0LdLholDHexb-47" value="" style="rhombus;whiteSpace=wrap;html=1;rounded=1;fillColor=#EEEEEE;strokeColor=#FFFFFF;fontColor=#1A1A1A;" parent="1" vertex="1"><mxGeometry x="580" y="1110" width="80" height="80" as="geometry"/></mxCell><mxCell id="nhhLQnxz0LdLholDHexb-50" value="AccName" style="text;html=1;strokeColor=none;fillColor=none;align=center;verticalAlign=middle;whiteSpace=wrap;rounded=1;fontColor=#1A1A1A;" parent="1" vertex="1"><mxGeometry x="130" y="1085" width="60" height="30" as="geometry"/></mxCell><mxCell id="nhhLQnxz0LdLholDHexb-51" value="LastSignIn" style="text;html=1;strokeColor=none;fillColor=none;align=center;verticalAlign=middle;whiteSpace=wrap;rounded=1;fontColor=#1A1A1A;" parent="1" vertex="1"><mxGeometry x="130" y="1169" width="60" height="30" as="geometry"/></mxCell><mxCell id="nhhLQnxz0LdLholDHexb-52" value="SbscbrName" style="text;html=1;strokeColor=none;fillColor=none;align=center;verticalAlign=middle;whiteSpace=wrap;rounded=1;fontColor=#1A1A1A;" parent="1" vertex="1"><mxGeometry x="130" y="1220" width="60" height="30" as="geometry"/></mxCell><mxCell id="nhhLQnxz0LdLholDHexb-53" value="SbscbrAddress" style="text;html=1;strokeColor=none;fillColor=none;align=center;verticalAlign=middle;whiteSpace=wrap;rounded=1;fontColor=#1A1A1A;" parent="1" vertex="1"><mxGeometry x="130" y="1270" width="60" height="30" as="geometry"/></mxCell><mxCell id="nhhLQnxz0LdLholDHexb-54" value="SbscbrMail" style="text;html=1;strokeColor=none;fillColor=none;align=center;verticalAlign=middle;whiteSpace=wrap;rounded=1;fontColor=#1A1A1A;" parent="1" vertex="1"><mxGeometry x="130" y="1320" width="60" height="30" as="geometry"/></mxCell><mxCell id="nhhLQnxz0LdLholDHexb-55" value="SbscbrPhone" style="text;html=1;strokeColor=none;fillColor=none;align=center;verticalAlign=middle;whiteSpace=wrap;rounded=1;fontColor=#1A1A1A;" parent="1" vertex="1"><mxGeometry x="130" y="1370" width="60" height="30" as="geometry"/></mxCell><mxCell id="nhhLQnxz0LdLholDHexb-56" value="AccCreateOn" style="text;html=1;strokeColor=none;fillColor=none;align=center;verticalAlign=middle;whiteSpace=wrap;rounded=1;fontColor=#1A1A1A;" parent="1" vertex="1"><mxGeometry x="130" y="1420" width="60" height="30" as="geometry"/></mxCell><mxCell id="nhhLQnxz0LdLholDHexb-59" value="Pass" style="text;html=1;strokeColor=none;fillColor=none;align=center;verticalAlign=middle;whiteSpace=wrap;rounded=1;fontColor=#1A1A1A;" parent="1" vertex="1"><mxGeometry x="130" y="1120" width="60" height="30" as="geometry"/></mxCell><mxCell id="nhhLQnxz0LdLholDHexb-60" value="" style="rounded=1;whiteSpace=wrap;html=1;fillColor=#EEEEEE;strokeColor=#FFFFFF;fontColor=#1A1A1A;" parent="1" vertex="1"><mxGeometry x="415.93" y="1340" width="120" height="30" as="geometry"/></mxCell><mxCell id="nhhLQnxz0LdLholDHexb-61" value="" style="rounded=1;whiteSpace=wrap;html=1;fillColor=#EEEEEE;strokeColor=#FFFFFF;fontColor=#1A1A1A;" parent="1" vertex="1"><mxGeometry x="415.93" y="1380" width="120" height="30" as="geometry"/></mxCell><mxCell id="nhhLQnxz0LdLholDHexb-62" value="" style="rounded=1;whiteSpace=wrap;html=1;fillColor=#EEEEEE;strokeColor=#FFFFFF;fontColor=#1A1A1A;" parent="1" vertex="1"><mxGeometry x="415.93" y="1680" width="120" height="30" as="geometry"/></mxCell><mxCell id="nhhLQnxz0LdLholDHexb-63" value="" style="rounded=1;whiteSpace=wrap;html=1;fillColor=#EEEEEE;strokeColor=#FFFFFF;fontColor=#1A1A1A;" parent="1" vertex="1"><mxGeometry x="415.93" y="1630" width="120" height="30" as="geometry"/></mxCell><mxCell id="nhhLQnxz0LdLholDHexb-64" value="" style="rounded=1;whiteSpace=wrap;html=1;fillColor=#EEEEEE;strokeColor=#FFFFFF;fontColor=#1A1A1A;" parent="1" vertex="1"><mxGeometry x="415.93" y="1530" width="120" height="30" as="geometry"/></mxCell><mxCell id="nhhLQnxz0LdLholDHexb-65" value="" style="rounded=1;whiteSpace=wrap;html=1;fillColor=#EEEEEE;strokeColor=#FFFFFF;fontColor=#1A1A1A;" parent="1" vertex="1"><mxGeometry x="415.93" y="1580" width="120" height="30" as="geometry"/></mxCell><mxCell id="nhhLQnxz0LdLholDHexb-66" value="" style="rounded=1;whiteSpace=wrap;html=1;fillColor=#EEEEEE;strokeColor=#FFFFFF;fontColor=#1A1A1A;" parent="1" vertex="1"><mxGeometry x="415.93" y="1429" width="120" height="30" as="geometry"/></mxCell><mxCell id="nhhLQnxz0LdLholDHexb-67" value="" style="rounded=1;whiteSpace=wrap;html=1;fillColor=#EEEEEE;strokeColor=#FFFFFF;fontColor=#1A1A1A;" parent="1" vertex="1"><mxGeometry x="415.93" y="1480" width="120" height="30" as="geometry"/></mxCell><mxCell id="nhhLQnxz0LdLholDHexb-68" style="edgeStyle=orthogonalEdgeStyle;rounded=1;orthogonalLoop=1;jettySize=auto;html=1;exitX=0.5;exitY=1;exitDx=0;exitDy=0;entryX=1;entryY=0.25;entryDx=0;entryDy=0;curved=1;labelBackgroundColor=#182E3E;strokeColor=#FFFFFF;fontColor=#FFFFFF;" parent="1" source="nhhLQnxz0LdLholDHexb-41" target="nhhLQnxz0LdLholDHexb-61" edge="1"><mxGeometry relative="1" as="geometry"><mxPoint x="609.9300000000001" y="1505" as="sourcePoint"/><Array as="points"><mxPoint x="620" y="1520"/><mxPoint x="573" y="1520"/><mxPoint x="573" y="1387"/></Array></mxGeometry></mxCell><mxCell id="nhhLQnxz0LdLholDHexb-69" style="edgeStyle=orthogonalEdgeStyle;rounded=1;orthogonalLoop=1;jettySize=auto;html=1;exitX=0;exitY=0.5;exitDx=0;exitDy=0;entryX=1;entryY=0.25;entryDx=0;entryDy=0;curved=1;labelBackgroundColor=#182E3E;strokeColor=#FFFFFF;fontColor=#FFFFFF;" parent="1" target="nhhLQnxz0LdLholDHexb-66" edge="1"><mxGeometry relative="1" as="geometry"><mxPoint x="609.9300000000001" y="1520" as="sourcePoint"/><Array as="points"><mxPoint x="572.9300000000001" y="1520"/><mxPoint x="572.9300000000001" y="1437"/></Array></mxGeometry></mxCell><mxCell id="nhhLQnxz0LdLholDHexb-70" style="edgeStyle=orthogonalEdgeStyle;rounded=1;orthogonalLoop=1;jettySize=auto;html=1;exitX=0;exitY=0.5;exitDx=0;exitDy=0;entryX=1;entryY=0.5;entryDx=0;entryDy=0;curved=1;labelBackgroundColor=#182E3E;strokeColor=#FFFFFF;fontColor=#FFFFFF;" parent="1" target="nhhLQnxz0LdLholDHexb-67" edge="1"><mxGeometry relative="1" as="geometry"><mxPoint x="609.9300000000001" y="1520" as="sourcePoint"/></mxGeometry></mxCell><mxCell id="nhhLQnxz0LdLholDHexb-71" style="edgeStyle=orthogonalEdgeStyle;rounded=1;orthogonalLoop=1;jettySize=auto;html=1;exitX=0;exitY=0.5;exitDx=0;exitDy=0;entryX=1;entryY=0.5;entryDx=0;entryDy=0;curved=1;labelBackgroundColor=#182E3E;strokeColor=#FFFFFF;fontColor=#FFFFFF;" parent="1" target="nhhLQnxz0LdLholDHexb-64" edge="1"><mxGeometry relative="1" as="geometry"><mxPoint x="609.9300000000001" y="1520" as="sourcePoint"/></mxGeometry></mxCell><mxCell id="nhhLQnxz0LdLholDHexb-72" style="edgeStyle=orthogonalEdgeStyle;rounded=1;orthogonalLoop=1;jettySize=auto;html=1;exitX=0;exitY=0.5;exitDx=0;exitDy=0;entryX=1;entryY=0.75;entryDx=0;entryDy=0;curved=1;labelBackgroundColor=#182E3E;strokeColor=#FFFFFF;fontColor=#FFFFFF;" parent="1" target="nhhLQnxz0LdLholDHexb-65" edge="1"><mxGeometry relative="1" as="geometry"><mxPoint x="609.9300000000001" y="1520" as="sourcePoint"/></mxGeometry></mxCell><mxCell id="nhhLQnxz0LdLholDHexb-73" style="edgeStyle=orthogonalEdgeStyle;rounded=1;orthogonalLoop=1;jettySize=auto;html=1;exitX=0;exitY=0.5;exitDx=0;exitDy=0;entryX=1;entryY=0.25;entryDx=0;entryDy=0;curved=1;labelBackgroundColor=#182E3E;strokeColor=#FFFFFF;fontColor=#FFFFFF;" parent="1" target="nhhLQnxz0LdLholDHexb-60" edge="1"><mxGeometry relative="1" as="geometry"><mxPoint x="609.9300000000001" y="1520" as="sourcePoint"/></mxGeometry></mxCell><mxCell id="nhhLQnxz0LdLholDHexb-74" style="edgeStyle=orthogonalEdgeStyle;rounded=1;orthogonalLoop=1;jettySize=auto;html=1;exitX=0;exitY=0.5;exitDx=0;exitDy=0;entryX=1;entryY=0.5;entryDx=0;entryDy=0;curved=1;labelBackgroundColor=#182E3E;strokeColor=#FFFFFF;fontColor=#FFFFFF;" parent="1" target="nhhLQnxz0LdLholDHexb-63" edge="1"><mxGeometry relative="1" as="geometry"><mxPoint x="609.9300000000001" y="1520" as="sourcePoint"/></mxGeometry></mxCell><mxCell id="nhhLQnxz0LdLholDHexb-75" style="edgeStyle=orthogonalEdgeStyle;rounded=1;orthogonalLoop=1;jettySize=auto;html=1;exitX=0;exitY=0.5;exitDx=0;exitDy=0;entryX=1;entryY=0.5;entryDx=0;entryDy=0;curved=1;labelBackgroundColor=#182E3E;strokeColor=#FFFFFF;fontColor=#FFFFFF;" parent="1" target="nhhLQnxz0LdLholDHexb-62" edge="1"><mxGeometry relative="1" as="geometry"><mxPoint x="609.9300000000001" y="1520" as="sourcePoint"/></mxGeometry></mxCell><mxCell id="nhhLQnxz0LdLholDHexb-76" value="ChName" style="text;html=1;strokeColor=none;fillColor=none;align=center;verticalAlign=middle;whiteSpace=wrap;rounded=1;fontColor=#1A1A1A;" parent="1" vertex="1"><mxGeometry x="445.93" y="1345" width="60" height="30" as="geometry"/></mxCell><mxCell id="nhhLQnxz0LdLholDHexb-77" value="ExpPoint" style="text;html=1;strokeColor=none;fillColor=none;align=center;verticalAlign=middle;whiteSpace=wrap;rounded=1;fontColor=#1A1A1A;" parent="1" vertex="1"><mxGeometry x="445.93" y="1429" width="60" height="30" as="geometry"/></mxCell><mxCell id="nhhLQnxz0LdLholDHexb-78" value="Type" style="text;html=1;strokeColor=none;fillColor=none;align=center;verticalAlign=middle;whiteSpace=wrap;rounded=1;fontColor=#1A1A1A;" parent="1" vertex="1"><mxGeometry x="445.93" y="1480" width="60" height="30" as="geometry"/></mxCell><mxCell id="nhhLQnxz0LdLholDHexb-79" value="MaxHitPoints" style="text;html=1;strokeColor=none;fillColor=none;align=center;verticalAlign=middle;whiteSpace=wrap;rounded=1;fontColor=#1A1A1A;" parent="1" vertex="1"><mxGeometry x="445.93" y="1530" width="60" height="30" as="geometry"/></mxCell><mxCell id="nhhLQnxz0LdLholDHexb-80" value="MaxMana" style="text;html=1;strokeColor=none;fillColor=none;align=center;verticalAlign=middle;whiteSpace=wrap;rounded=1;fontColor=#1A1A1A;" parent="1" vertex="1"><mxGeometry x="445.93" y="1580" width="60" height="30" as="geometry"/></mxCell><mxCell id="nhhLQnxz0LdLholDHexb-81" value="CurrHitPoint" style="text;html=1;strokeColor=none;fillColor=none;align=center;verticalAlign=middle;whiteSpace=wrap;rounded=1;fontColor=#1A1A1A;" parent="1" vertex="1"><mxGeometry x="445.93" y="1630" width="60" height="30" as="geometry"/></mxCell><mxCell id="nhhLQnxz0LdLholDHexb-82" value="CurrMan" style="text;html=1;strokeColor=none;fillColor=none;align=center;verticalAlign=middle;whiteSpace=wrap;rounded=1;fontColor=#1A1A1A;" parent="1" vertex="1"><mxGeometry x="445.93" y="1680" width="60" height="30" as="geometry"/></mxCell><mxCell id="nhhLQnxz0LdLholDHexb-83" value="Lvl" style="text;html=1;strokeColor=none;fillColor=none;align=center;verticalAlign=middle;whiteSpace=wrap;rounded=1;fontColor=#1A1A1A;" parent="1" vertex="1"><mxGeometry x="445.93" y="1380" width="60" height="30" as="geometry"/></mxCell><mxCell id="nhhLQnxz0LdLholDHexb-84" value="Account" style="text;html=1;strokeColor=none;fillColor=none;align=center;verticalAlign=middle;whiteSpace=wrap;rounded=1;fontColor=#1A1A1A;" parent="1" vertex="1"><mxGeometry x="326" y="1245" width="60" height="30" as="geometry"/></mxCell><mxCell id="nhhLQnxz0LdLholDHexb-85" value="CreatedOn" style="text;html=1;strokeColor=none;fillColor=none;align=center;verticalAlign=middle;whiteSpace=wrap;rounded=1;fontColor=#1A1A1A;" parent="1" vertex="1"><mxGeometry x="372" y="1145" width="60" height="30" as="geometry"/></mxCell><mxCell id="nhhLQnxz0LdLholDHexb-86" value="LastPlayed" style="text;html=1;strokeColor=none;fillColor=none;align=center;verticalAlign=middle;whiteSpace=wrap;rounded=1;fontColor=#1A1A1A;" parent="1" vertex="1"><mxGeometry x="358" y="1085" width="60" height="30" as="geometry"/></mxCell><mxCell id="nhhLQnxz0LdLholDHexb-87" value="Has" style="text;html=1;strokeColor=none;fillColor=none;align=center;verticalAlign=middle;whiteSpace=wrap;rounded=1;fontColor=#1A1A1A;" parent="1" vertex="1"><mxGeometry x="460" y="1245" width="60" height="30" as="geometry"/></mxCell><mxCell id="nhhLQnxz0LdLholDHexb-88" value="Character" style="text;html=1;strokeColor=none;fillColor=none;align=center;verticalAlign=middle;whiteSpace=wrap;rounded=1;fontColor=#1A1A1A;" parent="1" vertex="1"><mxGeometry x="590" y="1239" width="60" height="30" as="geometry"/></mxCell><mxCell id="nhhLQnxz0LdLholDHexb-89" value="Carrying" style="text;html=1;strokeColor=none;fillColor=none;align=center;verticalAlign=middle;whiteSpace=wrap;rounded=1;fontColor=#1A1A1A;" parent="1" vertex="1"><mxGeometry x="590" y="1135" width="60" height="30" as="geometry"/></mxCell><mxCell id="nhhLQnxz0LdLholDHexb-90" value="Contains" style="text;html=1;strokeColor=none;fillColor=none;align=center;verticalAlign=middle;whiteSpace=wrap;rounded=1;fontColor=#1A1A1A;" parent="1" vertex="1"><mxGeometry x="720" y="1245" width="60" height="30" as="geometry"/></mxCell><mxCell id="nhhLQnxz0LdLholDHexb-105" style="edgeStyle=orthogonalEdgeStyle;rounded=1;orthogonalLoop=1;jettySize=auto;html=1;exitX=0.5;exitY=0;exitDx=0;exitDy=0;entryX=1;entryY=0.5;entryDx=0;entryDy=0;curved=1;labelBackgroundColor=#182E3E;strokeColor=#FFFFFF;fontColor=#FFFFFF;" parent="1" source="nhhLQnxz0LdLholDHexb-91" target="nhhLQnxz0LdLholDHexb-94" edge="1"><mxGeometry relative="1" as="geometry"/></mxCell><mxCell id="nhhLQnxz0LdLholDHexb-91" value="" style="rounded=1;whiteSpace=wrap;html=1;fillColor=#EEEEEE;strokeColor=#FFFFFF;fontColor=#1A1A1A;" parent="1" vertex="1"><mxGeometry x="827" y="1230" width="120" height="60" as="geometry"/></mxCell><mxCell id="nhhLQnxz0LdLholDHexb-93" value="" style="rounded=1;whiteSpace=wrap;html=1;fillColor=#EEEEEE;strokeColor=#FFFFFF;fontColor=#1A1A1A;" parent="1" vertex="1"><mxGeometry x="710" y="989" width="120" height="30" as="geometry"/></mxCell><mxCell id="nhhLQnxz0LdLholDHexb-94" value="" style="rounded=1;whiteSpace=wrap;html=1;fillColor=#EEEEEE;strokeColor=#FFFFFF;fontColor=#1A1A1A;" parent="1" vertex="1"><mxGeometry x="710" y="1029" width="120" height="30" as="geometry"/></mxCell><mxCell id="nhhLQnxz0LdLholDHexb-95" value="" style="rounded=1;whiteSpace=wrap;html=1;fillColor=#EEEEEE;strokeColor=#FFFFFF;fontColor=#1A1A1A;" parent="1" vertex="1"><mxGeometry x="710" y="1078" width="120" height="30" as="geometry"/></mxCell><mxCell id="nhhLQnxz0LdLholDHexb-96" value="" style="rounded=1;whiteSpace=wrap;html=1;fillColor=#EEEEEE;strokeColor=#FFFFFF;fontColor=#1A1A1A;" parent="1" vertex="1"><mxGeometry x="710" y="1129" width="120" height="30" as="geometry"/></mxCell><mxCell id="nhhLQnxz0LdLholDHexb-97" style="edgeStyle=orthogonalEdgeStyle;rounded=1;orthogonalLoop=1;jettySize=auto;html=1;exitX=0.5;exitY=0;exitDx=0;exitDy=0;entryX=1;entryY=0.25;entryDx=0;entryDy=0;curved=1;labelBackgroundColor=#182E3E;strokeColor=#FFFFFF;fontColor=#FFFFFF;" parent="1" source="nhhLQnxz0LdLholDHexb-91" target="nhhLQnxz0LdLholDHexb-95" edge="1"><mxGeometry relative="1" as="geometry"><mxPoint x="904" y="1169" as="sourcePoint"/><Array as="points"><mxPoint x="887" y="1085"/></Array></mxGeometry></mxCell><mxCell id="nhhLQnxz0LdLholDHexb-98" style="edgeStyle=orthogonalEdgeStyle;rounded=1;orthogonalLoop=1;jettySize=auto;html=1;exitX=0.5;exitY=0;exitDx=0;exitDy=0;entryX=1;entryY=0.5;entryDx=0;entryDy=0;curved=1;labelBackgroundColor=#182E3E;strokeColor=#FFFFFF;fontColor=#FFFFFF;" parent="1" source="nhhLQnxz0LdLholDHexb-91" target="nhhLQnxz0LdLholDHexb-96" edge="1"><mxGeometry relative="1" as="geometry"><mxPoint x="904" y="1169" as="sourcePoint"/></mxGeometry></mxCell><mxCell id="nhhLQnxz0LdLholDHexb-99" style="edgeStyle=orthogonalEdgeStyle;rounded=1;orthogonalLoop=1;jettySize=auto;html=1;exitX=0.5;exitY=0;exitDx=0;exitDy=0;entryX=1;entryY=0.25;entryDx=0;entryDy=0;curved=1;labelBackgroundColor=#182E3E;strokeColor=#FFFFFF;fontColor=#FFFFFF;" parent="1" source="nhhLQnxz0LdLholDHexb-91" target="nhhLQnxz0LdLholDHexb-93" edge="1"><mxGeometry relative="1" as="geometry"><mxPoint x="904" y="1169" as="sourcePoint"/></mxGeometry></mxCell><mxCell id="nhhLQnxz0LdLholDHexb-100" value="RName" style="text;html=1;strokeColor=none;fillColor=none;align=center;verticalAlign=middle;whiteSpace=wrap;rounded=1;fontColor=#1A1A1A;" parent="1" vertex="1"><mxGeometry x="740" y="994" width="60" height="30" as="geometry"/></mxCell><mxCell id="nhhLQnxz0LdLholDHexb-101" value="PlayersIn" style="text;html=1;strokeColor=none;fillColor=none;align=center;verticalAlign=middle;whiteSpace=wrap;rounded=1;fontColor=#1A1A1A;" parent="1" vertex="1"><mxGeometry x="740" y="1078" width="60" height="30" as="geometry"/></mxCell><mxCell id="nhhLQnxz0LdLholDHexb-102" value="Foliage" style="text;html=1;strokeColor=none;fillColor=none;align=center;verticalAlign=middle;whiteSpace=wrap;rounded=1;fontColor=#1A1A1A;" parent="1" vertex="1"><mxGeometry x="740" y="1129" width="60" height="30" as="geometry"/></mxCell><mxCell id="nhhLQnxz0LdLholDHexb-103" value="Climate" style="text;html=1;strokeColor=none;fillColor=none;align=center;verticalAlign=middle;whiteSpace=wrap;rounded=1;fontColor=#1A1A1A;" parent="1" vertex="1"><mxGeometry x="740" y="1029" width="60" height="30" as="geometry"/></mxCell><mxCell id="nhhLQnxz0LdLholDHexb-106" value="Region" style="text;html=1;strokeColor=none;fillColor=none;align=center;verticalAlign=middle;whiteSpace=wrap;rounded=1;fontColor=#1A1A1A;" parent="1" vertex="1"><mxGeometry x="860" y="1245" width="60" height="30" as="geometry"/></mxCell><mxCell id="nhhLQnxz0LdLholDHexb-107" value="" style="endArrow=none;dashed=1;html=1;dashPattern=1 3;strokeWidth=2;rounded=1;curved=1;labelBackgroundColor=#182E3E;strokeColor=#FFFFFF;fontColor=#FFFFFF;" parent="1" edge="1"><mxGeometry width="50" height="50" relative="1" as="geometry"><mxPoint x="585" y="1094.33" as="sourcePoint"/><mxPoint x="655" y="1094.33" as="targetPoint"/></mxGeometry></mxCell><mxCell id="P69U2725cBdZ90KosVGv-9" style="edgeStyle=orthogonalEdgeStyle;rounded=1;orthogonalLoop=1;jettySize=auto;html=1;exitX=0.5;exitY=1;exitDx=0;exitDy=0;entryX=0.5;entryY=0;entryDx=0;entryDy=0;curved=1;labelBackgroundColor=#182E3E;strokeColor=#FFFFFF;fontColor=#FFFFFF;" parent="1" source="P69U2725cBdZ90KosVGv-1" target="P69U2725cBdZ90KosVGv-8" edge="1"><mxGeometry relative="1" as="geometry"/></mxCell><mxCell id="P69U2725cBdZ90KosVGv-1" value="Login" style="rounded=1;whiteSpace=wrap;html=1;fillColor=#EEEEEE;strokeColor=#FFFFFF;fontColor=#1A1A1A;" parent="1" vertex="1"><mxGeometry x="240" y="190" width="120" height="60" as="geometry"/></mxCell><mxCell id="P69U2725cBdZ90KosVGv-18" style="edgeStyle=orthogonalEdgeStyle;curved=1;rounded=1;sketch=1;orthogonalLoop=1;jettySize=auto;html=1;exitX=0.5;exitY=1;exitDx=0;exitDy=0;entryX=0.5;entryY=0;entryDx=0;entryDy=0;fontColor=#FFFFFF;strokeColor=#FFFFFF;" parent="1" source="P69U2725cBdZ90KosVGv-2" target="P69U2725cBdZ90KosVGv-17" edge="1"><mxGeometry relative="1" as="geometry"/></mxCell><mxCell id="P69U2725cBdZ90KosVGv-2" value="Sign up" style="rounded=1;whiteSpace=wrap;html=1;fillColor=#EEEEEE;strokeColor=#FFFFFF;fontColor=#1A1A1A;" parent="1" vertex="1"><mxGeometry x="600" y="250" width="120" height="60" as="geometry"/></mxCell><mxCell id="P69U2725cBdZ90KosVGv-3" value="Change data" style="rounded=1;whiteSpace=wrap;html=1;fillColor=#EEEEEE;strokeColor=#FFFFFF;fontColor=#1A1A1A;" parent="1" vertex="1"><mxGeometry x="820" y="250" width="120" height="60" as="geometry"/></mxCell><mxCell id="P69U2725cBdZ90KosVGv-5" style="edgeStyle=orthogonalEdgeStyle;rounded=1;orthogonalLoop=1;jettySize=auto;html=1;exitX=0;exitY=0.5;exitDx=0;exitDy=0;curved=1;labelBackgroundColor=#182E3E;strokeColor=#FFFFFF;fontColor=#FFFFFF;" parent="1" source="P69U2725cBdZ90KosVGv-4" target="P69U2725cBdZ90KosVGv-1" edge="1"><mxGeometry relative="1" as="geometry"/></mxCell><mxCell id="P69U2725cBdZ90KosVGv-6" style="edgeStyle=orthogonalEdgeStyle;rounded=1;orthogonalLoop=1;jettySize=auto;html=1;exitX=0.5;exitY=1;exitDx=0;exitDy=0;curved=1;labelBackgroundColor=#182E3E;strokeColor=#FFFFFF;fontColor=#FFFFFF;" parent="1" source="P69U2725cBdZ90KosVGv-4" target="P69U2725cBdZ90KosVGv-2" edge="1"><mxGeometry relative="1" as="geometry"/></mxCell><mxCell id="P69U2725cBdZ90KosVGv-7" style="edgeStyle=orthogonalEdgeStyle;rounded=1;orthogonalLoop=1;jettySize=auto;html=1;exitX=1;exitY=0.5;exitDx=0;exitDy=0;entryX=0.5;entryY=0;entryDx=0;entryDy=0;curved=1;labelBackgroundColor=#182E3E;strokeColor=#FFFFFF;fontColor=#FFFFFF;dashed=1;" parent="1" source="P69U2725cBdZ90KosVGv-4" target="P69U2725cBdZ90KosVGv-3" edge="1"><mxGeometry relative="1" as="geometry"/></mxCell><mxCell id="P69U2725cBdZ90KosVGv-4" value="Account" style="rounded=1;whiteSpace=wrap;html=1;fillColor=#EEEEEE;strokeColor=#FFFFFF;fontColor=#1A1A1A;" parent="1" vertex="1"><mxGeometry x="600" y="90" width="120" height="60" as="geometry"/></mxCell><mxCell id="P69U2725cBdZ90KosVGv-11" style="edgeStyle=orthogonalEdgeStyle;rounded=1;orthogonalLoop=1;jettySize=auto;html=1;exitX=0.5;exitY=1;exitDx=0;exitDy=0;entryX=0.5;entryY=0;entryDx=0;entryDy=0;curved=1;labelBackgroundColor=#182E3E;strokeColor=#FFFFFF;fontColor=#FFFFFF;" parent="1" source="P69U2725cBdZ90KosVGv-8" target="P69U2725cBdZ90KosVGv-10" edge="1"><mxGeometry relative="1" as="geometry"/></mxCell><mxCell id="P69U2725cBdZ90KosVGv-8" value="Sent:&amp;nbsp;&lt;br&gt;Login&amp;nbsp;&lt;br&gt;Password&lt;br&gt;(Encrypt THIS DATA)" style="rounded=1;whiteSpace=wrap;html=1;fillColor=#EEEEEE;strokeColor=#FFFFFF;fontColor=#1A1A1A;" parent="1" vertex="1"><mxGeometry x="240" y="300" width="120" height="60" as="geometry"/></mxCell><mxCell id="P69U2725cBdZ90KosVGv-14" style="edgeStyle=orthogonalEdgeStyle;rounded=1;orthogonalLoop=1;jettySize=auto;html=1;exitX=0;exitY=0.5;exitDx=0;exitDy=0;entryX=0.5;entryY=0;entryDx=0;entryDy=0;curved=1;labelBackgroundColor=#182E3E;strokeColor=#FFFFFF;fontColor=#FFFFFF;dashed=1;" parent="1" source="P69U2725cBdZ90KosVGv-10" target="P69U2725cBdZ90KosVGv-12" edge="1"><mxGeometry relative="1" as="geometry"/></mxCell><mxCell id="P69U2725cBdZ90KosVGv-15" style="edgeStyle=orthogonalEdgeStyle;rounded=1;orthogonalLoop=1;jettySize=auto;html=1;exitX=1;exitY=0.5;exitDx=0;exitDy=0;entryX=0.5;entryY=0;entryDx=0;entryDy=0;curved=1;labelBackgroundColor=#182E3E;strokeColor=#FFFFFF;fontColor=#FFFFFF;dashed=1;" parent="1" source="P69U2725cBdZ90KosVGv-10" target="P69U2725cBdZ90KosVGv-13" edge="1"><mxGeometry relative="1" as="geometry"/></mxCell><mxCell id="P69U2725cBdZ90KosVGv-10" value="Get request" style="rounded=1;whiteSpace=wrap;html=1;fillColor=#EEEEEE;strokeColor=#FFFFFF;fontColor=#1A1A1A;" parent="1" vertex="1"><mxGeometry x="240" y="420" width="120" height="60" as="geometry"/></mxCell><mxCell id="P69U2725cBdZ90KosVGv-23" style="edgeStyle=orthogonalEdgeStyle;curved=1;rounded=1;sketch=1;orthogonalLoop=1;jettySize=auto;html=1;exitX=0.5;exitY=1;exitDx=0;exitDy=0;entryX=0.5;entryY=0;entryDx=0;entryDy=0;dashed=1;fontColor=#FFFFFF;strokeColor=#FFFFFF;" parent="1" source="P69U2725cBdZ90KosVGv-12" target="P69U2725cBdZ90KosVGv-22" edge="1"><mxGeometry relative="1" as="geometry"/></mxCell><mxCell id="P69U2725cBdZ90KosVGv-12" value="Upload from server info about character&amp;nbsp;" style="rounded=1;whiteSpace=wrap;html=1;fillColor=#EEEEEE;strokeColor=#FFFFFF;fontColor=#1A1A1A;" parent="1" vertex="1"><mxGeometry x="130" y="530" width="120" height="60" as="geometry"/></mxCell><mxCell id="P69U2725cBdZ90KosVGv-24" style="edgeStyle=orthogonalEdgeStyle;curved=1;rounded=1;sketch=1;orthogonalLoop=1;jettySize=auto;html=1;exitX=0.5;exitY=1;exitDx=0;exitDy=0;dashed=1;fontColor=#FFFFFF;strokeColor=#FFFFFF;entryX=0.5;entryY=0;entryDx=0;entryDy=0;" parent="1" source="P69U2725cBdZ90KosVGv-13" target="P69U2725cBdZ90KosVGv-22" edge="1"><mxGeometry relative="1" as="geometry"><mxPoint x="280" y="680" as="targetPoint"/></mxGeometry></mxCell><mxCell id="P69U2725cBdZ90KosVGv-13" value="Upload and check uid&lt;br&gt;(character&amp;nbsp;in localhost)" style="rounded=1;whiteSpace=wrap;html=1;fillColor=#EEEEEE;strokeColor=#FFFFFF;fontColor=#1A1A1A;" parent="1" vertex="1"><mxGeometry x="350" y="530" width="120" height="60" as="geometry"/></mxCell><mxCell id="P69U2725cBdZ90KosVGv-21" style="edgeStyle=orthogonalEdgeStyle;curved=1;rounded=1;sketch=1;orthogonalLoop=1;jettySize=auto;html=1;exitX=0.5;exitY=1;exitDx=0;exitDy=0;entryX=0.5;entryY=0;entryDx=0;entryDy=0;fontColor=#FFFFFF;strokeColor=#36393d;fillColor=#f9f7ed;" parent="1" source="P69U2725cBdZ90KosVGv-16" target="P69U2725cBdZ90KosVGv-20" edge="1"><mxGeometry relative="1" as="geometry"/></mxCell><mxCell id="P69U2725cBdZ90KosVGv-16" value="Username&amp;nbsp;&lt;br&gt;password&lt;br&gt;mail&lt;br&gt;age&lt;br&gt;" style="rounded=1;whiteSpace=wrap;html=1;sketch=1;strokeColor=#36393d;fillColor=#f9f7ed;" parent="1" vertex="1"><mxGeometry x="600" y="450" width="120" height="80" as="geometry"/></mxCell><mxCell id="P69U2725cBdZ90KosVGv-19" style="edgeStyle=orthogonalEdgeStyle;curved=1;rounded=1;sketch=1;orthogonalLoop=1;jettySize=auto;html=1;exitX=0.5;exitY=1;exitDx=0;exitDy=0;entryX=0.5;entryY=0;entryDx=0;entryDy=0;fontColor=#FFFFFF;strokeColor=#36393d;fillColor=#f9f7ed;" parent="1" source="P69U2725cBdZ90KosVGv-17" target="P69U2725cBdZ90KosVGv-16" edge="1"><mxGeometry relative="1" as="geometry"/></mxCell><mxCell id="P69U2725cBdZ90KosVGv-17" value="WebPage for sign up" style="rounded=1;whiteSpace=wrap;html=1;sketch=1;strokeColor=#36393d;fillColor=#f9f7ed;" parent="1" vertex="1"><mxGeometry x="600" y="350" width="120" height="60" as="geometry"/></mxCell><mxCell id="P69U2725cBdZ90KosVGv-26" style="edgeStyle=orthogonalEdgeStyle;curved=1;rounded=1;sketch=1;orthogonalLoop=1;jettySize=auto;html=1;exitX=0.5;exitY=1;exitDx=0;exitDy=0;entryX=0.5;entryY=0;entryDx=0;entryDy=0;fontColor=#FFFFFF;strokeColor=#36393d;fillColor=#f9f7ed;" parent="1" source="P69U2725cBdZ90KosVGv-20" target="P69U2725cBdZ90KosVGv-25" edge="1"><mxGeometry relative="1" as="geometry"/></mxCell><mxCell id="P69U2725cBdZ90KosVGv-20" value="Chack mail&amp;nbsp;&lt;br&gt;Send message(auth code or link)//Beter link" style="rounded=1;whiteSpace=wrap;html=1;sketch=1;strokeColor=#36393d;fillColor=#f9f7ed;" parent="1" vertex="1"><mxGeometry x="600" y="555" width="120" height="60" as="geometry"/></mxCell><mxCell id="P69U2725cBdZ90KosVGv-22" value="State:&amp;nbsp;&lt;br&gt;Online" style="rounded=1;whiteSpace=wrap;html=1;sketch=1;strokeColor=#36393d;fillColor=#f9f7ed;" parent="1" vertex="1"><mxGeometry x="240" y="690" width="120" height="60" as="geometry"/></mxCell><mxCell id="P69U2725cBdZ90KosVGv-25" value="Create sign in database" style="rounded=1;whiteSpace=wrap;html=1;sketch=1;strokeColor=#36393d;fillColor=#f9f7ed;" parent="1" vertex="1"><mxGeometry x="600" y="650" width="120" height="60" as="geometry"/></mxCell></root></mxGraphModel></diagram></mxfile>